<svg width="330" height="40" viewBox="0 0 330 40" fill="none" xmlns="http://www.w3.org/2000/svg">
    <path d="M25.666 1.021v23.235L8.166 1.02h-7.5v37.703h8.083v-24l18.084 24h7V1.02h-8.167zM48.666 1.021h-8.25v37.703h8.25V1.02zM78.5 1.021v15.15H63.332V1.02h-8.167v37.703h8.167V24.256h15.166v14.468h8.25V1.02H78.5zM111.915 16.17h-10.416V8.51h10.416c1.75.086 4.25.767 4.25 3.83.084 3.065-2.416 3.83-4.25 3.83zm4.25 6.724c4.667-1.021 8.167-4.681 8.167-10.809 0-6.808-4.667-10.893-10.417-11.064H93.332v37.703h8.25V24.256h6.083l8.75 14.468h9.417l-9.667-15.83z" fill="#193E72"/>
    <path d="M141.166 1.105h-3.25v37.703h3.25V1.105z" fill="#EA5C4E"/>
    <path d="M157.667 1.105c.083 0 .166 0 .25.086.083 0 .083.085.166.17.084.085.084.17.167.255l7.5 9.958c0-.256-.083-.511-.083-.681V1.105H168V16h-1.333c-.25 0-.417 0-.5-.085-.167-.085-.25-.17-.417-.34l-7.5-9.958c0 .255 0 .426.083.681v9.787H156V1.105h1.667zM174 14.383c.25 0 .5 0 .667-.085.25-.085.416-.085.583-.255a4.72 4.72 0 0 0 .583-.341l.5-.51v-1.788c-.75 0-1.333.085-1.75.17-.5.085-.833.256-1.166.34-.25.171-.5.341-.584.511-.083.17-.166.426-.166.596 0 .426.166.766.416.936.167.34.5.426.917.426zM178.75 16h-1.083c-.25 0-.417 0-.584-.085-.166-.085-.25-.255-.333-.426l-.25-.766c-.25.256-.5.426-.75.596-.25.17-.5.34-.75.426-.25.085-.583.255-.833.255-.334.085-.667.085-1 .085-.417 0-.834-.085-1.167-.17-.333-.085-.667-.34-.917-.51-.25-.256-.5-.511-.583-.937-.167-.34-.25-.766-.25-1.277 0-.425.083-.766.333-1.191.167-.426.5-.766 1-1.021.5-.34 1.084-.596 1.834-.766.75-.17 1.75-.34 2.916-.34v-.511c0-.681-.166-1.277-.416-1.617-.25-.34-.667-.511-1.25-.511-.417 0-.75.085-1 .17s-.5.17-.667.34a2.57 2.57 0 0 0-.5.341c-.167.085-.333.17-.583.17a.63.63 0 0 1-.417-.17c-.083-.085-.25-.17-.25-.34l-.417-.851c1.167-1.107 2.584-1.703 4.25-1.703.584 0 1.167.086 1.584.34.5.171.833.511 1.166.852.334.34.584.766.75 1.276.167.511.25 1.022.25 1.618V16h-.083zM184.5 16.17c-.917 0-1.583-.256-2-.767-.5-.51-.75-1.276-.75-2.127V7.318h-1c-.167 0-.25-.085-.333-.17a.654.654 0 0 1-.167-.425V5.7l1.667-.255.5-2.894c0-.17.083-.255.166-.34.084-.085.25-.085.334-.085h1.25v3.32h2.666v1.786h-2.666v5.702c0 .34.083.596.25.766.166.17.333.256.666.256.167 0 .25 0 .417-.085.083 0 .167-.085.25-.085.083 0 .167-.086.167-.086.083 0 .083-.085.166-.085.084 0 .167 0 .167.085.083 0 .083.085.167.17l.75 1.277c-.334.34-.75.51-1.25.681-.417.255-.917.34-1.417.34zM191.417 16H189V5.447h2.417V16zm.416-13.702c0 .255-.083.425-.166.596-.084.17-.167.34-.334.51-.166.17-.333.256-.5.34-.166.086-.416.17-.583.17-.25 0-.417-.084-.583-.17-.167-.084-.334-.17-.5-.34-.167-.17-.25-.34-.334-.51-.083-.17-.083-.426-.083-.596 0-.255.083-.426.083-.681.084-.17.167-.34.334-.51.166-.17.333-.256.5-.341.166-.085.416-.17.583-.17.25 0 .417 0 .583.17.167.085.334.17.5.34.167.17.25.34.334.511.083.255.166.51.166.68zM198.584 14.213c.833 0 1.5-.255 1.917-.85.416-.596.583-1.447.583-2.639 0-1.106-.167-2.042-.583-2.638-.417-.596-1-.936-1.917-.936-.833 0-1.5.34-1.917.936-.416.596-.583 1.447-.583 2.638 0 1.107.167 2.043.583 2.639.417.51 1 .85 1.917.85zm0-8.936c.75 0 1.417.17 2.083.34.584.256 1.167.597 1.584 1.107.416.51.75 1.021 1 1.702s.333 1.447.333 2.298-.083 1.617-.333 2.298c-.25.68-.584 1.277-1 1.702-.417.51-1 .851-1.584 1.107a5.357 5.357 0 0 1-2.083.425c-.75 0-1.417-.17-2.083-.425-.584-.256-1.167-.596-1.584-1.107-.416-.51-.75-1.021-1-1.702-.25-.68-.333-1.447-.333-2.298 0-.85.083-1.617.333-2.298.25-.68.584-1.276 1-1.702.417-.425 1-.85 1.584-1.106.583-.256 1.333-.34 2.083-.34zM205.5 16V5.449h1.5c.333 0 .5.17.583.425l.167.851c.167-.255.417-.425.667-.596.25-.17.5-.34.75-.425.25-.17.5-.255.833-.34.25-.086.583-.086.917-.086.583 0 1.083.085 1.5.256.416.17.75.51 1.083.85.25.341.5.767.667 1.277.166.511.25 1.022.25 1.617v6.724H212V9.277c0-.68-.167-1.106-.417-1.532-.25-.34-.75-.51-1.333-.51-.417 0-.833.085-1.167.34-.333.17-.75.51-1.083.851v7.66h-2.5V16zM220 14.383c.25 0 .5 0 .667-.085.25-.085.416-.085.583-.255a4.72 4.72 0 0 0 .583-.341l.5-.51v-1.788c-.75 0-1.333.085-1.75.17-.5.085-.833.256-1.166.34-.25.171-.5.341-.584.511-.083.17-.166.426-.166.596 0 .426.166.766.416.936.167.34.5.426.917.426zM224.75 16h-1.083c-.25 0-.417 0-.584-.085-.166-.085-.25-.255-.333-.426l-.25-.766c-.25.256-.5.426-.75.596-.25.17-.5.34-.75.426-.25.085-.583.255-.833.255-.334.085-.667.085-1 .085-.417 0-.834-.085-1.167-.17-.333-.085-.667-.34-.917-.51-.25-.256-.5-.511-.583-.937-.167-.34-.25-.766-.25-1.277 0-.425.083-.766.333-1.191.167-.426.5-.766 1-1.021.5-.34 1.084-.596 1.834-.766.75-.17 1.75-.34 2.916-.34v-.511c0-.681-.166-1.277-.416-1.617-.25-.34-.667-.511-1.25-.511-.417 0-.75.085-1 .17s-.5.17-.667.34c-.167.086-.333.256-.5.341-.167.085-.333.17-.583.17a.63.63 0 0 1-.417-.17c-.083-.085-.25-.17-.25-.34l-.417-.851c1.167-1.107 2.584-1.703 4.25-1.703.584 0 1.167.086 1.584.34.5.171.833.511 1.166.852.334.34.584.766.75 1.276.167.511.25 1.022.25 1.618V16h-.083zM229.751.682h-2.417V16h2.417V.68zM239.499 1.105h-2.667V16h2.667V1.105zM242.582 16V5.449h1.5c.333 0 .5.17.583.425l.167.851c.167-.255.417-.425.667-.596.25-.17.5-.34.75-.425.25-.17.5-.255.833-.34.25-.086.583-.086.917-.086.583 0 1.083.085 1.5.256.416.17.75.51 1.083.85.25.341.5.767.667 1.277.166.511.25 1.022.25 1.617v6.724h-2.417V9.277c0-.68-.167-1.106-.417-1.532-.25-.34-.75-.51-1.333-.51-.417 0-.833.085-1.167.34-.333.17-.75.51-1.083.851v7.66h-2.5V16zM259.832 7.489l-.25.255c-.083.085-.167.085-.25.085-.083 0-.25 0-.417-.085l-.5-.255c-.166-.085-.416-.17-.583-.255-.25-.085-.5-.085-.833-.085-.5 0-.834.085-1.167.34-.25.255-.417.51-.417.851 0 .255.084.426.25.596.167.17.334.255.584.425.25.085.5.256.833.34.333.086.583.171.917.341.333.085.583.255.916.34.334.17.584.341.834.511.25.256.416.51.583.766.167.34.25.681.25 1.107 0 .51-.083 1.02-.25 1.446-.167.426-.417.766-.75 1.107-.333.34-.75.595-1.25.766-.5.17-1.083.255-1.75.255-.333 0-.667 0-1-.085l-1-.255c-.333-.085-.583-.256-.833-.426-.25-.17-.5-.34-.667-.51l.583-.937.25-.255c.084-.085.25-.085.417-.085.167 0 .333.085.417.17l.5.255c.166.085.416.17.666.256.25.085.584.17.917.17.25 0 .5 0 .75-.085.167-.085.417-.17.5-.256.167-.085.25-.255.333-.425.084-.17.084-.34.084-.51a.783.783 0 0 0-.25-.596c-.167-.17-.334-.256-.584-.426-.25-.085-.5-.255-.833-.34a4.028 4.028 0 0 1-.917-.34c-.333-.086-.583-.256-.916-.426a2.987 2.987 0 0 1-.834-.596 3.063 3.063 0 0 1-.583-.851c-.167-.34-.25-.766-.25-1.192 0-.425.083-.85.25-1.276.167-.426.417-.766.75-1.021.333-.256.75-.511 1.167-.681.5-.17 1-.256 1.666-.256.667 0 1.334.085 1.917.34.583.256 1.083.597 1.417.937l-.667.851zM265.832 16.17c-.917 0-1.583-.256-2-.767-.5-.51-.75-1.276-.75-2.127V7.318h-1c-.167 0-.25-.085-.333-.17a.654.654 0 0 1-.167-.425V5.7l1.667-.255.5-2.894c0-.17.083-.255.166-.34.084-.085.25-.085.334-.085h1.25v3.32h2.666v1.786h-2.666v5.702c0 .34.083.596.25.766.166.17.333.256.666.256.167 0 .25 0 .417-.085.083 0 .167-.085.25-.085.083 0 .167-.086.167-.086.083 0 .083-.085.166-.085.084 0 .167 0 .167.085.083 0 .083.085.167.17l.75 1.277c-.334.34-.75.51-1.25.681-.417.255-.917.34-1.417.34zM272.749 16h-2.417V5.447h2.417V16zm.416-13.702c0 .255-.083.425-.166.596-.084.17-.167.34-.334.51-.166.17-.333.256-.5.34-.166.086-.416.17-.583.17-.25 0-.417-.084-.583-.17-.167-.084-.334-.17-.5-.34-.167-.17-.25-.34-.334-.51-.083-.17-.083-.426-.083-.596 0-.255.083-.426.083-.681.084-.17.167-.34.334-.51.166-.17.333-.256.5-.341.166-.085.416-.17.583-.17.25 0 .417 0 .583.17.167.085.334.17.5.34.167.17.25.34.334.511.083.255.166.51.166.68zM278.916 16.17c-.917 0-1.583-.256-2-.767-.5-.51-.75-1.276-.75-2.127V7.318h-1c-.167 0-.25-.085-.333-.17a.654.654 0 0 1-.167-.425V5.7l1.667-.255.5-2.894c0-.17.083-.255.166-.34.084-.085.25-.085.334-.085h1.25v3.32h2.666v1.786h-2.666v5.702c0 .34.083.596.25.766.166.17.333.256.666.256.167 0 .25 0 .417-.085.083 0 .167-.085.25-.085.083 0 .167-.086.167-.086.083 0 .083-.085.166-.085.084 0 .167 0 .167.085.083 0 .083.085.167.17l.75 1.277c-.334.34-.75.51-1.25.681-.5.255-.917.34-1.417.34zM285.416 5.447v6.724c0 .68.167 1.106.417 1.532.25.34.75.51 1.333.51.417 0 .833-.085 1.167-.255.333-.17.75-.426 1.083-.851v-7.66h2.417v10.639h-1.5c-.334 0-.5-.17-.584-.426l-.166-.851c-.25.255-.417.426-.667.596-.25.17-.5.34-.75.425-.25.17-.5.256-.833.34-.334.086-.584.086-.917.086-.583 0-1.083-.085-1.5-.256-.417-.17-.75-.51-1.083-.85-.25-.341-.5-.767-.667-1.277a5.042 5.042 0 0 1-.25-1.617V5.532h2.5v-.085zM297.832 16.17c-.917 0-1.583-.256-2-.767-.5-.51-.75-1.276-.75-2.127V7.318h-1c-.167 0-.25-.085-.333-.17a.654.654 0 0 1-.167-.425V5.7l1.667-.255.5-2.894c0-.17.083-.255.166-.34.084-.085.25-.085.334-.085h1.25v3.32h2.666v1.786h-2.666v5.702c0 .34.083.596.25.766.166.17.333.256.666.256.167 0 .25 0 .417-.085.083 0 .167-.085.25-.085.083 0 .167-.086.167-.086.083 0 .083-.085.166-.085.084 0 .167 0 .167.085.083 0 .083.085.167.17l.75 1.277c-.334.34-.75.51-1.25.681-.417.255-.917.34-1.417.34zM306.415 7.065c-.75 0-1.25.17-1.667.595-.417.426-.667 1.022-.75 1.788h4.583c0-.34 0-.681-.166-.937-.084-.255-.25-.51-.417-.766a1.3 1.3 0 0 0-.667-.51 2.938 2.938 0 0 0-.916-.17zm-.084-1.788c.667 0 1.25.085 1.75.34.5.256 1 .511 1.417.937.417.425.667.936.917 1.532s.333 1.276.333 2.042v.511c0 .17-.083.255-.083.34l-.167.17c-.083 0-.167.086-.25.086h-6.25c.083 1.106.333 1.872.833 2.383.5.51 1.167.766 1.917.766.417 0 .75-.085 1-.17.25-.086.5-.17.75-.34.25-.086.417-.256.583-.341.167-.085.334-.17.5-.17.084 0 .167 0 .25.085.084.085.167.085.167.17l.75.936c-.25.34-.583.596-.917.851a2.554 2.554 0 0 1-1.083.51 2.52 2.52 0 0 1-1.083.256c-.417.085-.75.085-1.084.085-.666 0-1.333-.085-2-.34-.583-.256-1.166-.596-1.583-1.107-.417-.51-.833-1.106-1.083-1.787a7.251 7.251 0 0 1-.417-2.468c0-.68.083-1.362.333-2.043a7.01 7.01 0 0 1 1-1.702c.417-.51.917-.85 1.5-1.106.584-.34 1.25-.426 2-.426zM156.249 39.15v-8.681l-.916-.17c-.167 0-.334-.085-.5-.17a.654.654 0 0 1-.167-.426v-1.021h1.5v-.766c0-.596.083-1.107.25-1.617.167-.51.417-.851.75-1.192.333-.34.75-.595 1.167-.766.5-.17 1-.255 1.583-.255.5 0 .917.085 1.333.17l-.083 1.277c0 .17-.083.34-.25.34-.167.085-.333.085-.583.085-.25 0-.584 0-.75.085-.25.085-.417.17-.584.34-.166.171-.25.341-.333.682-.083.255-.083.595-.083 1.02v.682h2.666v1.787h-2.583v8.596h-2.417zM167.082 37.362c.833 0 1.5-.255 1.917-.851.416-.596.583-1.447.583-2.638 0-1.107-.167-2.043-.583-2.639-.417-.596-1-.936-1.917-.936-.833 0-1.5.34-1.917.936-.416.596-.583 1.447-.583 2.639 0 1.106.167 2.042.583 2.638.417.51 1.084.85 1.917.85zm0-8.936c.75 0 1.417.17 2.083.34.584.256 1.167.596 1.584 1.107.416.51.75 1.02 1 1.702.25.68.333 1.447.333 2.298 0 .85-.083 1.617-.333 2.297-.25.681-.584 1.277-1 1.703-.417.51-1 .85-1.584 1.106a5.358 5.358 0 0 1-2.083.425c-.75 0-1.417-.17-2.083-.425-.584-.255-1.167-.596-1.584-1.106-.416-.511-.75-1.022-1-1.703-.25-.68-.333-1.446-.333-2.297 0-.851.083-1.617.333-2.298s.584-1.277 1-1.702c.417-.426 1-.852 1.584-1.107.666-.255 1.333-.34 2.083-.34zM174 39.15V28.595h1.417c.25 0 .416.085.5.17.083.085.166.256.166.51l.167 1.277c.333-.68.75-1.191 1.25-1.532.5-.34 1-.595 1.667-.595.5 0 .916.085 1.25.34l-.334 1.873c0 .085-.083.17-.166.255-.084.085-.167.085-.25.085-.084 0-.25 0-.417-.085-.167-.085-.417-.085-.667-.085-.5 0-.916.17-1.333.425-.333.256-.667.681-.917 1.277v6.638H174zM195.499 24.256v6.383h-6.75v-6.383h-2.667V39.15h2.667V32.68h6.75v6.469h2.666V24.256h-2.666zM205.165 30.213c-.75 0-1.25.17-1.666.596-.417.425-.667 1.021-.75 1.787h4.583c0-.34 0-.68-.167-.936-.083-.256-.25-.51-.416-.766a1.3 1.3 0 0 0-.667-.51c-.25-.086-.5-.171-.917-.171zm0-1.787c.667 0 1.25.085 1.75.34.5.256 1 .51 1.417.936.417.426.667.936.917 1.532s.333 1.277.333 2.043v.51c0 .17-.083.256-.083.34l-.167.171c-.083 0-.167.085-.25.085h-6.25c.083 1.107.333 1.873.833 2.383.5.51 1.167.766 1.917.766.417 0 .75-.085 1-.17s.5-.17.75-.34c.25-.086.417-.256.583-.34.167-.086.334-.171.5-.171.084 0 .167 0 .25.085.084.085.167.085.167.17l.75.936c-.25.34-.583.596-.917.851a2.553 2.553 0 0 1-1.083.511 2.52 2.52 0 0 1-1.083.255c-.417.085-.75.085-1.084.085-.666 0-1.333-.085-2-.34-.583-.255-1.166-.596-1.583-1.106-.417-.51-.833-1.107-1.083-1.788a7.252 7.252 0 0 1-.417-2.468c0-.68.083-1.361.333-2.042a7.01 7.01 0 0 1 1-1.702c.417-.51.917-.851 1.5-1.107.5-.34 1.25-.425 2-.425zM214.748 37.618c.25 0 .5 0 .667-.086.25-.085.416-.085.583-.255a4.73 4.73 0 0 0 .583-.34l.5-.51v-1.788a8.66 8.66 0 0 0-1.75.17c-.5.085-.833.255-1.166.34-.25.17-.5.34-.584.511-.083.17-.166.426-.166.596 0 .425.166.766.416.936.167.255.5.426.917.426zm4.75 1.532h-1.083c-.25 0-.417 0-.584-.086-.166-.085-.25-.255-.333-.425l-.25-.766c-.25.255-.5.425-.75.596-.25.17-.5.34-.75.425-.25.085-.583.256-.833.256-.334.085-.667.085-1 .085-.417 0-.834-.085-1.167-.17-.333-.086-.667-.341-.917-.511-.25-.256-.5-.51-.583-.936-.167-.34-.25-.766-.25-1.277 0-.426.083-.766.333-1.191.167-.426.5-.767 1-1.022.5-.34 1.084-.596 1.834-.766.75-.17 1.75-.34 2.916-.34v-.596c0-.68-.166-1.277-.416-1.617-.25-.34-.667-.51-1.25-.51-.417 0-.75.085-1 .17s-.5.17-.667.34c-.167.085-.333.255-.5.34-.167.086-.333.17-.583.17a.63.63 0 0 1-.417-.17c-.083-.085-.25-.17-.25-.34l-.417-.851c1.167-1.106 2.584-1.702 4.25-1.702.584 0 1.167.085 1.584.34.5.17.833.51 1.166.851.334.34.584.766.75 1.277.167.51.25 1.021.25 1.617v6.809h-.083zM224.499 23.83h-2.417v15.32h2.417V23.83zM230.666 39.319c-.917 0-1.583-.256-2-.766-.5-.51-.75-1.277-.75-2.128v-5.957h-1c-.167 0-.25-.085-.333-.17a.654.654 0 0 1-.167-.426v-.936l1.667-.256.5-2.893c0-.17.083-.255.166-.34.084-.086.25-.086.334-.086h1.25v3.32h2.666v1.787h-2.666v5.702c0 .34.083.596.25.766.166.17.333.255.666.255.167 0 .25 0 .417-.085.083 0 .167-.085.25-.085.083 0 .167-.085.167-.085.083 0 .083-.085.166-.085.084 0 .167 0 .167.085.083 0 .083.085.167.17l.75 1.277c-.334.34-.75.51-1.25.68-.5.17-1 .256-1.417.256zM234.998 39.15V23.83h2.417v5.872c.416-.425.833-.68 1.333-.936.5-.255 1-.34 1.667-.34.583 0 1.083.085 1.5.255.416.17.75.51 1.083.851.25.34.5.766.667 1.277.166.51.25 1.021.25 1.617v6.723h-2.417v-6.723c0-.681-.167-1.107-.417-1.532-.25-.34-.75-.51-1.333-.51-.417 0-.833.084-1.167.34-.333.17-.75.51-1.083.85v7.66h-2.5v-.085zM252.917 31.32h1.666c.5 0 .917-.085 1.334-.17.333-.17.666-.341.916-.511.25-.255.417-.51.5-.851.084-.34.167-.681.167-1.021 0-.767-.25-1.362-.75-1.788-.5-.425-1.25-.595-2.167-.595h-1.666v4.936zm0 2.042v5.788h-2.667V24.256h4.333c1 0 1.834.085 2.5.34.667.17 1.25.51 1.75.851.417.34.75.851 1 1.362.167.51.334 1.106.334 1.702 0 .51-.084.936-.25 1.447-.167.426-.334.851-.584 1.192-.25.34-.583.68-1 .936-.416.255-.833.51-1.333.68.333.17.667.511.833.852l3.584 5.532H259c-.25 0-.417-.086-.583-.17a1.012 1.012 0 0 1-.417-.426l-3-4.766c-.083-.17-.25-.34-.333-.34-.167-.086-.334-.086-.584-.086h-1.166zM267.333 30.213c-.75 0-1.25.17-1.667.596-.417.425-.667 1.021-.75 1.787h4.583c0-.34-.083-.68-.166-.936-.084-.256-.25-.51-.417-.766a1.3 1.3 0 0 0-.667-.51 2.938 2.938 0 0 0-.916-.171zm-.084-1.787c.667 0 1.25.085 1.75.34.5.256 1 .51 1.417.936.417.426.667.936.917 1.532s.333 1.277.333 2.043v.51c0 .17-.083.256-.083.34 0 .086-.084.086-.167.171-.083 0-.167.085-.25.085h-6.25c.083 1.107.333 1.873.833 2.383.5.51 1.167.766 1.917.766.417 0 .75-.085 1-.17s.5-.17.75-.34c.25-.086.417-.256.583-.34.167-.086.334-.171.5-.171.084 0 .167 0 .25.085.084.085.167.085.167.17l.75.936c-.25.34-.583.596-.917.851a2.553 2.553 0 0 1-1.083.511 2.52 2.52 0 0 1-1.083.255c-.417.085-.75.085-1.084.085-.666 0-1.333-.085-2-.34-.583-.255-1.166-.596-1.583-1.106-.417-.51-.833-1.107-1.083-1.788a7.252 7.252 0 0 1-.417-2.468c0-.68.083-1.361.333-2.042a7.01 7.01 0 0 1 1-1.702c.417-.51.917-.851 1.5-1.107.584-.34 1.25-.425 2-.425zM279.666 30.64l-.25.255c-.083.085-.167.085-.25.085-.083 0-.25 0-.417-.085l-.5-.256c-.166-.085-.416-.17-.583-.255-.25-.085-.5-.085-.833-.085-.5 0-.834.085-1.167.34-.25.256-.417.511-.417.851 0 .256.084.426.25.596.167.17.334.256.584.426.25.085.5.255.833.34.333.085.583.17.917.34.333.086.583.256.916.341.334.085.584.34.834.51.25.256.416.511.583.767.167.34.25.68.25 1.106 0 .51-.083 1.021-.25 1.447-.167.425-.417.766-.75 1.106-.333.34-.75.596-1.25.766-.5.17-1.083.255-1.75.255-.333 0-.667 0-1-.085l-1-.255c-.333-.085-.583-.255-.833-.425-.25-.17-.5-.34-.667-.511l.583-.936.25-.256c.084-.085.25-.085.417-.085.167 0 .333.085.417.17l.5.256c.166.085.416.17.666.255.25.085.584.17.917.17.25 0 .5 0 .75-.085.167-.085.417-.17.5-.255.167-.085.25-.255.333-.426.084-.17.084-.34.084-.51a.783.783 0 0 0-.25-.596c-.167-.17-.334-.255-.584-.426-.25-.085-.5-.255-.833-.34a4.028 4.028 0 0 1-.917-.34c-.333-.086-.583-.256-.916-.426a2.99 2.99 0 0 1-.834-.596 3.063 3.063 0 0 1-.583-.85c-.167-.341-.25-.767-.25-1.192 0-.426.083-.851.25-1.277.167-.425.417-.766.75-1.021.333-.255.75-.51 1.167-.681.5-.17 1-.255 1.666-.255.667 0 1.334.085 1.917.34.583.256 1.083.596 1.417.936l-.667.851zM286.583 30.213c-.75 0-1.25.17-1.667.596-.417.425-.667 1.021-.75 1.787h4.583c0-.34-.083-.68-.166-.936-.084-.256-.25-.51-.417-.766a1.3 1.3 0 0 0-.667-.51 2.938 2.938 0 0 0-.916-.171zm-.084-1.787c.667 0 1.25.085 1.75.34.5.256 1 .51 1.417.936.417.426.667.936.917 1.532s.333 1.277.333 2.043v.51c0 .17-.083.256-.083.34 0 .086-.084.086-.167.171-.083 0-.167.085-.25.085h-6.25c.083 1.107.333 1.873.833 2.383.5.51 1.167.766 1.917.766.417 0 .75-.085 1-.17s.5-.17.75-.34c.25-.086.417-.256.583-.34.167-.086.334-.171.5-.171.084 0 .167 0 .25.085.084.085.167.085.167.17l.75.936c-.25.34-.583.596-.917.851a2.553 2.553 0 0 1-1.083.511 2.52 2.52 0 0 1-1.083.255c-.417.085-.75.085-1.084.085-.666 0-1.333-.085-2-.34-.583-.255-1.166-.596-1.583-1.106-.417-.51-.833-1.107-1.083-1.788a7.252 7.252 0 0 1-.417-2.468c0-.68.083-1.361.333-2.042a7.01 7.01 0 0 1 1-1.702c.417-.51.917-.851 1.5-1.107.584-.34 1.25-.425 2-.425zM296.084 37.618c.25 0 .5 0 .667-.086.25-.085.416-.085.583-.255a4.73 4.73 0 0 0 .583-.34l.5-.51v-1.788a8.66 8.66 0 0 0-1.75.17c-.5.085-.833.255-1.166.34-.25.17-.5.34-.584.511-.083.17-.166.426-.166.596 0 .425.166.766.416.936.167.255.5.426.917.426zm4.75 1.532h-1.083c-.25 0-.417 0-.584-.086-.166-.085-.25-.255-.333-.425l-.25-.766c-.25.255-.5.425-.75.596-.25.17-.5.34-.75.425-.25.085-.583.256-.833.256-.334.085-.667.085-1 .085-.417 0-.834-.085-1.167-.17-.333-.086-.667-.341-.917-.511-.25-.256-.5-.51-.583-.936-.167-.34-.25-.766-.25-1.277 0-.426.083-.766.333-1.191.167-.426.5-.767 1-1.022.5-.34 1.084-.596 1.834-.766.75-.17 1.75-.34 2.916-.34v-.596c0-.68-.166-1.277-.416-1.617-.25-.34-.667-.51-1.25-.51-.417 0-.75.085-1 .17s-.5.17-.667.34c-.167.085-.333.255-.5.34-.167.086-.333.17-.583.17a.63.63 0 0 1-.417-.17c-.083-.085-.25-.17-.25-.34l-.417-.851c1.167-1.106 2.584-1.702 4.25-1.702.584 0 1.167.085 1.584.34.5.17.833.51 1.166.851.334.34.584.766.75 1.277.167.51.25 1.021.25 1.617v6.809h-.083zM303.25 39.15V28.595h1.417c.25 0 .416.085.5.17.083.085.166.256.166.51l.167 1.277c.333-.68.75-1.191 1.25-1.532.5-.34 1-.595 1.667-.595.5 0 .916.085 1.25.34l-.334 1.873c0 .085-.083.17-.166.255-.084.085-.167.085-.25.085-.084 0-.25 0-.417-.085-.167-.085-.417-.085-.667-.085-.5 0-.916.17-1.333.425-.333.256-.667.681-.917 1.277v6.638h-2.333zM318.5 30.808l-.25.256c-.083.085-.167.085-.333.085-.084 0-.25 0-.334-.085-.083-.085-.25-.17-.416-.256-.167-.085-.334-.17-.584-.255-.25-.085-.5-.085-.833-.085-.417 0-.833.085-1.167.255-.333.17-.583.426-.833.681-.25.34-.417.681-.5 1.107-.083.425-.167.936-.167 1.446 0 .596.084 1.107.167 1.532.083.426.25.851.5 1.107.25.34.5.51.833.68.334.17.667.256 1.084.256.416 0 .666-.085.916-.17s.417-.17.584-.34c.166-.086.333-.256.416-.341a.631.631 0 0 1 .417-.17c.167 0 .333.085.417.255l.666.936c-.25.34-.583.596-.916.851a2.802 2.802 0 0 1-1 .51c-.334.171-.667.256-1.084.256-.333.085-.75.085-1.083.085-.667 0-1.25-.085-1.75-.34-.583-.255-1-.596-1.417-1.107-.416-.425-.75-1.02-1-1.702-.25-.68-.333-1.447-.333-2.298 0-.766.083-1.532.333-2.127.25-.681.5-1.277.917-1.702.417-.511.917-.851 1.583-1.107a5.367 5.367 0 0 1 2.084-.425c.75 0 1.416.17 2 .34.583.255 1.083.596 1.5 1.107l-.417.765zM320.834 39.15V23.83h2.417v5.872c.416-.425.833-.68 1.333-.936.5-.255 1-.34 1.667-.34.583 0 1.083.085 1.5.255.416.17.75.51 1.083.851.25.34.5.766.667 1.277.166.51.25 1.021.25 1.617v6.723h-2.417v-6.723c0-.681-.167-1.107-.417-1.532-.25-.34-.75-.51-1.333-.51-.417 0-.833.084-1.167.34-.333.17-.75.51-1.083.85v7.66h-2.5v-.085z" fill="#193E72"/>
</svg>
